<svg data-v-0dd9719b="" version="1.0" xmlns="http://www.w3.org/2000/svg" xmlns:xlink="http://www.w3.org/1999/xlink" width="340" height="250" viewBox="0 0 340.000000 250.000000" preserveAspectRatio="xMidYMid meet" color-interpolation-filters="sRGB" style="margin: auto;"> <rect data-v-0dd9719b="" x="0" y="0" width="100%" height="100%" fill="#FFFFFF" fill-opacity="0" class="background"></rect> <!----> <g data-v-0dd9719b="" fill="#333333" class="icon-text-wrapper icon-svg-group iconsvg" transform="translate(72.27484893798828,73.06863403320312)"><g class="iconsvg-imagesvg" transform="translate(0,24.309600830078125)" fill="#333333"><g fill="#333333"><rect fill="#333333" fill-opacity="0" stroke-width="2px" x="0" y="0" width="60" height="55.24353190313967" class="image-rect"></rect> <svg x="0" y="0" width="60" height="55.24353190313967" filtersec="colorsb7690243581" class="image-svg-svg primary" style="overflow: visible;" fill="#333333"><svg xmlns="http://www.w3.org/2000/svg" viewBox="0 -0.0006262734532356262 46.32999801635742 42.65729522705078" fill="#333333"><path d="M5.4.17c2.3-.3 4.69 0 7-.09 1.37.07 2.84-.36 4.12.26C12.93.39 9.31.22 5.69.41c1.52 3.18 3.55 6.08 5.16 9.2-1.71 3.15-3.7 6.14-5.26 9.39 1.78.06 3.57 0 5.35 0 .85 1.6 1.77 3.15 2.66 4.72 1.71 3.28 3.87 6.28 5.27 9.6-1.76 3.08-3.49 6.19-5.35 9.21-1.81-3.13-3.64-6.24-5.41-9.39.77-1.61 1.89-3 2.58-4.68A20.21 20.21 0 0 0 9 25.22C6 20 2.88 14.85 0 9.58 1.7 6.39 3.57 3.28 5.4.17z" fill="#87EBFF"></path><path d="M29.81 4.82l.09.18c1.81 3.14 3.83 6.18 5.34 9.49-1.81 3.13-3.58 6.27-5.43 9.38-1.61-3.3-3.71-6.31-5.35-9.59.85-1.56 1.75-3.1 2.65-4.64s1.89-3.16 2.7-4.82zM10.85 9.61h10.88c-1.83 3.12-3.56 6.3-5.45 9.38H5.59c1.56-3.24 3.55-6.23 5.26-9.38z" fill="#0A36EF"></path><path d="M35.24 14.47a92 92 0 0 1 10.89 0q-2.64 4.68-5.36 9.29h-5.41c-1.83 3.1-3.57 6.25-5.43 9.33-1-1.54-1.87-3.13-2.75-4.72.87-1.51 1.72-3 2.63-4.5 1.85-3.13 3.62-6.27 5.43-9.4zM18.87 33.32a79.89 79.89 0 0 1 10.94 0c-1.74 3.13-3.54 6.22-5.35 9.31-3.65 0-7.3.06-10.94 0 1.86-3.12 3.59-6.23 5.35-9.31z" fill="#0A36EF"></path><path d="M5.69.41C9.31.22 12.93.39 16.54.34c.7 1.57 1.65 3 2.47 4.5 3.6.08 7.2.11 10.8 0-.81 1.66-1.74 3.24-2.7 4.8H10.85C9.24 6.49 7.21 3.59 5.69.41zM29.9 5c3.63-.18 7.28-.06 10.91-.07 1.84 3.19 3.69 6.36 5.52 9.55h-.2a92 92 0 0 0-10.89 0C33.73 11.16 31.71 8.12 29.9 5zM13.6 23.73h10.9q1.32 2.31 2.68 4.62c.88 1.59 1.78 3.18 2.75 4.72l.13.23h-.25a79.89 79.89 0 0 0-10.94 0c-1.4-3.3-3.56-6.3-5.27-9.57z" fill="#87EBFF"></path></svg></svg> <!----></g></g> <g transform="translate(67,0)" fill="#333333"><g data-gra="path-name" fill-rule="" class="tp-name iconsvg-namesvg" fill="#333333"><g transform="scale(1)" fill="#333333"><g fill="#333333"><path d="M34.08 0L1.55 0 1.55-2.96 3.88-2.96Q4.5-2.96 5.02-3.08 5.53-3.2 5.91-3.58 6.29-3.96 6.51-4.66 6.72-5.37 6.72-6.56L6.72-6.56 6.72-33.1Q6.72-34.3 6.51-35 6.29-35.71 5.91-36.09 5.53-36.47 5.02-36.59 4.5-36.71 3.88-36.71L3.88-36.71 1.55-36.71 1.55-39.64 20.71-39.64 20.71-36.71 18.38-36.71Q17.81-36.71 17.28-36.59 16.75-36.47 16.38-36.11 16-35.76 15.77-35.1 15.53-34.43 15.53-33.32L15.53-33.32 15.53-3.39 25.86-3.39Q27.82-3.39 28.9-4.62 29.99-5.86 30.47-8.21L30.47-8.21 31.37-12.39 34.49-12.39 34.08 0ZM57.02 0L37.85 0 37.85-2.96 40.18-2.96Q40.8-2.96 41.32-3.08 41.83-3.2 42.21-3.58 42.59-3.96 42.81-4.66 43.03-5.37 43.03-6.56L43.03-6.56 43.03-33.08Q43.03-34.27 42.81-34.97 42.59-35.68 42.21-36.06 41.83-36.44 41.32-36.56 40.8-36.68 40.18-36.68L40.18-36.68 37.85-36.68 37.85-39.64 57.02-39.64 57.02-36.68 54.68-36.68Q54.09-36.68 53.56-36.56 53.03-36.44 52.65-36.06 52.27-35.68 52.05-34.97 51.84-34.27 51.84-33.08L51.84-33.08 51.84-6.56Q51.84-5.37 52.05-4.66 52.27-3.96 52.65-3.58 53.03-3.2 53.56-3.08 54.09-2.96 54.68-2.96L54.68-2.96 57.02-2.96 57.02 0ZM92.64 0L60.11 0 60.11-2.96 62.44-2.96Q63.06-2.96 63.58-3.08 64.09-3.2 64.47-3.58 64.85-3.96 65.07-4.66 65.28-5.37 65.28-6.56L65.28-6.56 65.28-33.1Q65.28-34.3 65.07-35 64.85-35.71 64.47-36.09 64.09-36.47 63.58-36.59 63.06-36.71 62.44-36.71L62.44-36.71 60.11-36.71 60.11-39.64 79.27-39.64 79.27-36.71 76.94-36.71Q76.37-36.71 75.84-36.59 75.32-36.47 74.94-36.11 74.56-35.76 74.33-35.1 74.1-34.43 74.1-33.32L74.1-33.32 74.1-3.39 84.43-3.39Q86.38-3.39 87.46-4.62 88.55-5.86 89.03-8.21L89.03-8.21 89.93-12.39 93.05-12.39 92.64 0ZM121.13 0L100.64 0 100.64-2.96 103.24-2.96Q103.92-2.96 104.5-3.04 105.08-3.12 105.52-3.46 105.95-3.8 106.21-4.47 106.47-5.15 106.47-6.32L106.47-6.32 106.47-14.04 96.19-33.75Q95.79-34.57 95.42-35.14 95.05-35.71 94.62-36.04 94.19-36.38 93.63-36.55 93.07-36.71 92.26-36.71L92.26-36.71 91.53-36.71 91.53-39.64 110.13-39.64 110.13-36.71 109.18-36.71Q107.5-36.71 106.67-36.03 105.84-35.35 105.84-34.21L105.84-34.21Q105.84-33.51 106.1-32.68 106.36-31.86 106.68-31.15L106.68-31.15 110.81-22.99Q111.67-21.23 112.23-19.87 112.78-18.52 113.25-17.22L113.25-17.22Q113.81-18.68 114.56-20.4 115.31-22.12 116.23-23.99L116.23-23.99 119.45-30.64Q120.05-31.86 120.23-32.68 120.4-33.51 120.4-33.97L120.4-33.97Q120.4-35.41 119.49-36.06 118.59-36.71 116.74-36.71L116.74-36.71 115.47-36.71 115.47-39.64 130-39.64 130-36.71 128.94-36.71Q128.24-36.71 127.74-36.52 127.23-36.33 126.79-35.84 126.34-35.35 125.87-34.51 125.39-33.67 124.74-32.37L124.74-32.37 115.31-13.99 115.31-6.4Q115.31-5.18 115.55-4.5 115.79-3.82 116.21-3.47 116.63-3.12 117.19-3.04 117.75-2.96 118.4-2.96L118.4-2.96 121.13-2.96 121.13 0Z" transform="translate(-1.5499999523162842, 39.63999938964844)" fill="#333333"></path></g> <!----> <!----> <!----> <!----> <!----> <!----> <g data-gra="path-name-1" fill="#333333" transform="translate(0,42.63999938964844)"><g transform="scale(1.02123)" fill="#333333"><path d="M37.75-31.17L37.75-31.17Q37.75-28.38 36.78-25.81 35.81-23.23 33.63-21.26 31.45-19.29 27.96-18.12 24.47-16.95 19.44-16.95L19.44-16.95 17.32-16.95 17.32-7Q17.32-5.79 17.59-5.05 17.86-4.31 18.32-3.93 18.77-3.55 19.38-3.43 19.98-3.31 20.62-3.31L20.62-3.31 24.41-3.31 24.41 0 1.73 0 1.73-3.31 4.34-3.31Q5.03-3.31 5.61-3.44 6.19-3.58 6.61-4 7.04-4.43 7.28-5.22 7.52-6 7.52-7.34L7.52-7.34 7.52-37.27Q7.52-38.51 7.28-39.25 7.04-40 6.6-40.39 6.16-40.79 5.58-40.92 5-41.06 4.34-41.06L4.34-41.06 1.73-41.06 1.73-44.33 20.8-44.33Q25.11-44.33 28.29-43.42 31.48-42.51 33.58-40.8 35.69-39.09 36.72-36.66 37.75-34.24 37.75-31.17ZM17.32-40.66L17.32-20.56 18.83-20.56Q21.14-20.56 22.74-21.14 24.35-21.71 25.37-22.96 26.38-24.2 26.85-26.17 27.32-28.14 27.32-30.93L27.32-30.93Q27.32-33.42 26.91-35.25 26.5-37.09 25.61-38.28 24.71-39.48 23.27-40.07 21.83-40.66 19.74-40.66L19.74-40.66 17.32-40.66ZM85.09-22.23L85.09-22.23Q85.09-17.86 84.1-14.18 83.12-10.49 81.21-7.64 79.3-4.79 76.48-2.84 73.66-0.88 69.99 0L69.99 0Q70.26 3.43 71.11 5.63 71.96 7.82 73.19 9.08 74.42 10.34 75.9 10.83 77.39 11.31 78.93 11.31L78.93 11.31 79.93 11.31 79.93 14.92 75.48 14.92Q72.69 14.92 69.97 14.1 67.26 13.28 65.06 11.51 62.86 9.73 61.39 6.96 59.92 4.18 59.62 0.24L59.62 0.24Q55.43-0.39 52.32-2.29 49.22-4.18 47.15-7.1 45.09-10.01 44.08-13.86 43.06-17.71 43.06-22.29L43.06-22.29Q43.06-27.44 44.36-31.64 45.67-35.84 48.29-38.82 50.91-41.79 54.87-43.41 58.83-45.03 64.17-45.03L64.17-45.03Q69.2-45.03 73.1-43.41 76.99-41.79 79.66-38.8 82.33-35.81 83.71-31.61 85.09-27.41 85.09-22.23ZM53.49-22.23L53.49-22.23Q53.49-17.77 54.07-14.28 54.64-10.8 55.92-8.38 57.19-5.97 59.21-4.7 61.22-3.43 64.11-3.43L64.11-3.43Q67.02-3.43 69.03-4.7 71.05-5.97 72.29-8.38 73.54-10.8 74.1-14.28 74.66-17.77 74.66-22.23L74.66-22.23Q74.66-26.69 74.1-30.17 73.54-33.66 72.29-36.07 71.05-38.48 69.05-39.74 67.05-41 64.17-41L64.17-41Q61.25-41 59.22-39.74 57.19-38.48 55.92-36.07 54.64-33.66 54.07-30.17 53.49-26.69 53.49-22.23ZM114.9-4.34L114.9-4.34Q117.17-4.34 118.95-4.87 120.72-5.4 122.12-6.25 123.51-7.1 124.56-8.16 125.6-9.22 126.39-10.25L126.39-10.25Q126.88-9.89 127.16-9.13 127.45-8.37 127.45-7.58L127.45-7.58Q127.45-6.28 126.76-4.84 126.06-3.4 124.42-2.18 122.78-0.97 120.08-0.18 117.39 0.61 113.41 0.61L113.41 0.61Q108.01 0.61 103.98-1.03 99.95-2.67 97.28-5.67 94.61-8.67 93.28-12.89 91.94-17.1 91.94-22.23L91.94-22.23Q91.94-27.26 93.31-31.45 94.67-35.63 97.36-38.63 100.04-41.64 104.06-43.3 108.08-44.97 113.35-44.97L113.35-44.97Q116.93-44.97 119.58-44.41 122.24-43.85 124-42.88 125.75-41.91 126.63-40.59 127.51-39.27 127.51-37.75L127.51-37.75Q127.51-36.6 127.01-35.62 126.51-34.63 125.53-33.9 124.54-33.17 123.09-32.77 121.63-32.36 119.75-32.36L119.75-32.36Q119.75-33.9 119.42-35.43 119.08-36.97 118.28-38.21 117.48-39.45 116.17-40.23 114.87-41 112.93-41L112.93-41Q109.99-41 107.95-39.76 105.92-38.51 104.69-36.12 103.47-33.72 102.92-30.22 102.37-26.72 102.37-22.23L102.37-22.23Q102.37-17.74 103.04-14.37 103.71-11.01 105.19-8.78 106.68-6.55 109.06-5.44 111.44-4.34 114.9-4.34Z" transform="translate(-1.7300000190734863, 45.029998779296875)" fill="#333333"></path></g></g></g></g> <!----></g></g><defs v-gra="od"></defs></svg>